<?xml version="1.0" ?>
<svg fill="none" height="26" viewBox="0 0 38 26" width="38" xmlns="http://www.w3.org/2000/svg">
<path d="M32.8 25H5.10001C3.10001 25 1.39999 23.3 1.39999 21.3V4.70001C1.39999 2.70001 3.10001 1 5.10001 1H32.8C34.8 1 36.5 2.70001 36.5 4.70001V21.3C36.5 23.3 34.9 25 32.8 25Z" stroke="#4F4F4F" stroke-miterlimit="10" stroke-width="2"/>
<path d="M11.6 11.3C13.2569 11.3 14.6 10.0016 14.6 8.39999C14.6 6.79837 13.2569 5.5 11.6 5.5C9.94315 5.5 8.60001 6.79837 8.60001 8.39999C8.60001 10.0016 9.94315 11.3 11.6 11.3Z" stroke="#4F4F4F" stroke-miterlimit="10" stroke-width="2"/>
<path d="M15.6 20.4H7.60001C6.80001 20.4 6.10001 19.7 6.10001 18.9V16.3C6.10001 14.2 7.79999 12.5 9.89999 12.5H13.3C15.4 12.5 17.1 14.2 17.1 16.3V18.9C17.2 19.7 16.5 20.4 15.6 20.4Z" stroke="#4F4F4F" stroke-miterlimit="10" stroke-width="2"/>
<path d="M21.8 7.5H31.9" stroke="#4F4F4F" stroke-linecap="round" stroke-miterlimit="10" stroke-width="2"/>
<path d="M21.8 11.2H31.9" stroke="#4F4F4F" stroke-linecap="round" stroke-miterlimit="10" stroke-width="2"/>
<path d="M21.8 14.8H31.9" stroke="#4F4F4F" stroke-linecap="round" stroke-miterlimit="10" stroke-width="2"/>
<path d="M21.8 18.5H31.9" stroke="#4F4F4F" stroke-linecap="round" stroke-miterlimit="10" stroke-width="2"/>
</svg>